<mxfile host="Electron" agent="Mozilla/5.0 (Windows NT 10.0; Win64; x64) AppleWebKit/537.36 (KHTML, like Gecko) draw.io/27.0.9 Chrome/134.0.6998.205 Electron/35.4.0 Safari/537.36" version="27.0.9">
  <diagram name="Página-1" id="kU0U38mGIyD2k4u_Bt-u">
    <mxGraphModel dx="1693" dy="993" grid="1" gridSize="10" guides="1" tooltips="1" connect="1" arrows="1" fold="1" page="1" pageScale="1" pageWidth="827" pageHeight="1169" math="0" shadow="0">
      <root>
        <mxCell id="0" />
        <mxCell id="1" parent="0" />
        <mxCell id="Mo_r6kZZPWjqHTLVWbYb-92" value="ALUMNO" style="whiteSpace=wrap;html=1;align=center;fillColor=#f0a30a;strokeColor=#BD7000;fontColor=#000000;" vertex="1" parent="1">
          <mxGeometry x="240" y="340.31" width="100" height="40" as="geometry" />
        </mxCell>
        <mxCell id="Mo_r6kZZPWjqHTLVWbYb-93" value="PROFESOR" style="whiteSpace=wrap;html=1;align=center;fillColor=#f0a30a;strokeColor=#BD7000;fontColor=#000000;" vertex="1" parent="1">
          <mxGeometry x="539" y="325.54999999999995" width="100" height="40" as="geometry" />
        </mxCell>
        <mxCell id="Mo_r6kZZPWjqHTLVWbYb-94" value="ASIGNATURA" style="whiteSpace=wrap;html=1;align=center;fillColor=#f0a30a;strokeColor=#BD7000;fontColor=#000000;" vertex="1" parent="1">
          <mxGeometry x="395" y="490" width="100" height="40" as="geometry" />
        </mxCell>
        <mxCell id="Mo_r6kZZPWjqHTLVWbYb-95" value="Matriculado" style="shape=rhombus;perimeter=rhombusPerimeter;whiteSpace=wrap;html=1;align=center;fillColor=#76608a;fontColor=#ffffff;strokeColor=#432D57;" vertex="1" parent="1">
          <mxGeometry x="245" y="490" width="90" height="40" as="geometry" />
        </mxCell>
        <mxCell id="Mo_r6kZZPWjqHTLVWbYb-96" value="" style="endArrow=none;html=1;rounded=0;exitX=0.5;exitY=0;exitDx=0;exitDy=0;entryX=0.5;entryY=1;entryDx=0;entryDy=0;" edge="1" parent="1" source="Mo_r6kZZPWjqHTLVWbYb-95" target="Mo_r6kZZPWjqHTLVWbYb-92">
          <mxGeometry relative="1" as="geometry">
            <mxPoint x="222" y="480" as="sourcePoint" />
            <mxPoint x="175" y="510" as="targetPoint" />
          </mxGeometry>
        </mxCell>
        <mxCell id="Mo_r6kZZPWjqHTLVWbYb-97" value="(1,M)" style="resizable=0;html=1;whiteSpace=wrap;align=right;verticalAlign=bottom;" connectable="0" vertex="1" parent="Mo_r6kZZPWjqHTLVWbYb-96">
          <mxGeometry x="1" relative="1" as="geometry">
            <mxPoint x="20" y="30" as="offset" />
          </mxGeometry>
        </mxCell>
        <mxCell id="Mo_r6kZZPWjqHTLVWbYb-98" value="" style="endArrow=none;html=1;rounded=0;exitX=1;exitY=0.5;exitDx=0;exitDy=0;" edge="1" parent="1" source="Mo_r6kZZPWjqHTLVWbYb-95">
          <mxGeometry relative="1" as="geometry">
            <mxPoint x="222" y="480" as="sourcePoint" />
            <mxPoint x="395" y="510" as="targetPoint" />
          </mxGeometry>
        </mxCell>
        <mxCell id="Mo_r6kZZPWjqHTLVWbYb-99" value="(1,N)" style="resizable=0;html=1;whiteSpace=wrap;align=right;verticalAlign=bottom;" connectable="0" vertex="1" parent="Mo_r6kZZPWjqHTLVWbYb-98">
          <mxGeometry x="1" relative="1" as="geometry">
            <mxPoint as="offset" />
          </mxGeometry>
        </mxCell>
        <mxCell id="Mo_r6kZZPWjqHTLVWbYb-100" value="impartida" style="shape=rhombus;perimeter=rhombusPerimeter;whiteSpace=wrap;html=1;align=center;fillColor=#76608a;fontColor=#ffffff;strokeColor=#432D57;" vertex="1" parent="1">
          <mxGeometry x="544" y="500" width="90" height="40" as="geometry" />
        </mxCell>
        <mxCell id="Mo_r6kZZPWjqHTLVWbYb-101" value="" style="endArrow=none;html=1;rounded=0;exitX=0;exitY=0.5;exitDx=0;exitDy=0;entryX=0.95;entryY=0.5;entryDx=0;entryDy=0;entryPerimeter=0;" edge="1" parent="1" source="Mo_r6kZZPWjqHTLVWbYb-100" target="Mo_r6kZZPWjqHTLVWbYb-94">
          <mxGeometry relative="1" as="geometry">
            <mxPoint x="521" y="490" as="sourcePoint" />
            <mxPoint x="490" y="520" as="targetPoint" />
          </mxGeometry>
        </mxCell>
        <mxCell id="Mo_r6kZZPWjqHTLVWbYb-102" value="(1,N)" style="resizable=0;html=1;whiteSpace=wrap;align=right;verticalAlign=bottom;" connectable="0" vertex="1" parent="Mo_r6kZZPWjqHTLVWbYb-101">
          <mxGeometry x="1" relative="1" as="geometry">
            <mxPoint x="40" as="offset" />
          </mxGeometry>
        </mxCell>
        <mxCell id="Mo_r6kZZPWjqHTLVWbYb-103" value="" style="endArrow=none;html=1;rounded=0;exitX=0.5;exitY=0;exitDx=0;exitDy=0;entryX=0.5;entryY=1;entryDx=0;entryDy=0;" edge="1" parent="1" source="Mo_r6kZZPWjqHTLVWbYb-100" target="Mo_r6kZZPWjqHTLVWbYb-93">
          <mxGeometry relative="1" as="geometry">
            <mxPoint x="521" y="490" as="sourcePoint" />
            <mxPoint x="644" y="350" as="targetPoint" />
          </mxGeometry>
        </mxCell>
        <mxCell id="Mo_r6kZZPWjqHTLVWbYb-104" value="(1,1)" style="resizable=0;html=1;whiteSpace=wrap;align=right;verticalAlign=bottom;" connectable="0" vertex="1" parent="Mo_r6kZZPWjqHTLVWbYb-103">
          <mxGeometry x="1" relative="1" as="geometry">
            <mxPoint y="15" as="offset" />
          </mxGeometry>
        </mxCell>
        <mxCell id="Mo_r6kZZPWjqHTLVWbYb-105" value="" style="endArrow=none;html=1;rounded=0;" edge="1" parent="1" source="Mo_r6kZZPWjqHTLVWbYb-94" target="Mo_r6kZZPWjqHTLVWbYb-106">
          <mxGeometry relative="1" as="geometry">
            <mxPoint x="420" y="575" as="sourcePoint" />
            <mxPoint x="480" y="575" as="targetPoint" />
          </mxGeometry>
        </mxCell>
        <mxCell id="Mo_r6kZZPWjqHTLVWbYb-106" value="&lt;u&gt;Codigo&lt;/u&gt;" style="ellipse;whiteSpace=wrap;html=1;align=center;" vertex="1" parent="1">
          <mxGeometry x="455" y="560" width="50" height="30" as="geometry" />
        </mxCell>
        <mxCell id="Mo_r6kZZPWjqHTLVWbYb-107" value="" style="endArrow=none;html=1;rounded=0;" edge="1" parent="1" source="Mo_r6kZZPWjqHTLVWbYb-93" target="Mo_r6kZZPWjqHTLVWbYb-108">
          <mxGeometry relative="1" as="geometry">
            <mxPoint x="595" y="315.54999999999995" as="sourcePoint" />
            <mxPoint x="606.5" y="270.54999999999995" as="targetPoint" />
          </mxGeometry>
        </mxCell>
        <mxCell id="Mo_r6kZZPWjqHTLVWbYb-108" value="&lt;u&gt;Id_P&lt;/u&gt;" style="ellipse;whiteSpace=wrap;html=1;align=center;" vertex="1" parent="1">
          <mxGeometry x="581.5" y="255.55" width="50" height="30" as="geometry" />
        </mxCell>
        <mxCell id="Mo_r6kZZPWjqHTLVWbYb-109" value="" style="endArrow=none;html=1;rounded=0;exitX=0.5;exitY=0;exitDx=0;exitDy=0;" edge="1" parent="1" source="Mo_r6kZZPWjqHTLVWbYb-92" target="Mo_r6kZZPWjqHTLVWbYb-110">
          <mxGeometry relative="1" as="geometry">
            <mxPoint x="270" y="275.31" as="sourcePoint" />
            <mxPoint x="330" y="275.31" as="targetPoint" />
          </mxGeometry>
        </mxCell>
        <mxCell id="Mo_r6kZZPWjqHTLVWbYb-110" value="&lt;u&gt;Núm_Matrícula&lt;/u&gt;" style="ellipse;whiteSpace=wrap;html=1;align=center;" vertex="1" parent="1">
          <mxGeometry x="305" y="260.31" width="115" height="30" as="geometry" />
        </mxCell>
        <mxCell id="Mo_r6kZZPWjqHTLVWbYb-111" value="" style="endArrow=none;html=1;rounded=0;" edge="1" parent="1" source="Mo_r6kZZPWjqHTLVWbYb-92" target="Mo_r6kZZPWjqHTLVWbYb-112">
          <mxGeometry relative="1" as="geometry">
            <mxPoint x="210" y="275.31" as="sourcePoint" />
            <mxPoint x="270" y="275.31" as="targetPoint" />
          </mxGeometry>
        </mxCell>
        <mxCell id="Mo_r6kZZPWjqHTLVWbYb-112" value="Nombre" style="ellipse;whiteSpace=wrap;html=1;align=center;" vertex="1" parent="1">
          <mxGeometry x="245" y="260.31" width="50" height="30" as="geometry" />
        </mxCell>
        <mxCell id="Mo_r6kZZPWjqHTLVWbYb-113" value="" style="endArrow=none;html=1;rounded=0;" edge="1" parent="1" source="Mo_r6kZZPWjqHTLVWbYb-93" target="Mo_r6kZZPWjqHTLVWbYb-114">
          <mxGeometry relative="1" as="geometry">
            <mxPoint x="485" y="270.54999999999995" as="sourcePoint" />
            <mxPoint x="545" y="270.54999999999995" as="targetPoint" />
          </mxGeometry>
        </mxCell>
        <mxCell id="Mo_r6kZZPWjqHTLVWbYb-114" value="Nombre" style="ellipse;whiteSpace=wrap;html=1;align=center;" vertex="1" parent="1">
          <mxGeometry x="520" y="255.55" width="50" height="30" as="geometry" />
        </mxCell>
        <mxCell id="Mo_r6kZZPWjqHTLVWbYb-115" value="" style="endArrow=none;html=1;rounded=0;" edge="1" parent="1" source="Mo_r6kZZPWjqHTLVWbYb-94" target="Mo_r6kZZPWjqHTLVWbYb-116">
          <mxGeometry relative="1" as="geometry">
            <mxPoint x="360" y="595" as="sourcePoint" />
            <mxPoint x="420" y="595" as="targetPoint" />
          </mxGeometry>
        </mxCell>
        <mxCell id="Mo_r6kZZPWjqHTLVWbYb-116" value="Nombre" style="ellipse;whiteSpace=wrap;html=1;align=center;" vertex="1" parent="1">
          <mxGeometry x="395" y="580" width="50" height="30" as="geometry" />
        </mxCell>
        <mxCell id="Mo_r6kZZPWjqHTLVWbYb-117" value="" style="endArrow=none;html=1;rounded=0;" edge="1" parent="1" source="Mo_r6kZZPWjqHTLVWbYb-95" target="Mo_r6kZZPWjqHTLVWbYb-118">
          <mxGeometry relative="1" as="geometry">
            <mxPoint x="230" y="595" as="sourcePoint" />
            <mxPoint x="290" y="595" as="targetPoint" />
          </mxGeometry>
        </mxCell>
        <mxCell id="Mo_r6kZZPWjqHTLVWbYb-118" value="Curso escolar" style="ellipse;whiteSpace=wrap;html=1;align=center;" vertex="1" parent="1">
          <mxGeometry x="265" y="580" width="65" height="50" as="geometry" />
        </mxCell>
        <mxCell id="Mo_r6kZZPWjqHTLVWbYb-119" value="" style="endArrow=none;html=1;rounded=0;exitX=0;exitY=0;exitDx=0;exitDy=0;" edge="1" target="Mo_r6kZZPWjqHTLVWbYb-120" parent="1" source="Mo_r6kZZPWjqHTLVWbYb-92">
          <mxGeometry relative="1" as="geometry">
            <mxPoint x="170" y="315.31" as="sourcePoint" />
            <mxPoint x="230" y="315.31" as="targetPoint" />
          </mxGeometry>
        </mxCell>
        <mxCell id="Mo_r6kZZPWjqHTLVWbYb-120" value="FechaNacimiento" style="ellipse;whiteSpace=wrap;html=1;align=center;" vertex="1" parent="1">
          <mxGeometry x="120" y="270.31" width="110" height="30" as="geometry" />
        </mxCell>
        <mxCell id="Mo_r6kZZPWjqHTLVWbYb-123" value="" style="endArrow=none;html=1;rounded=0;" edge="1" target="Mo_r6kZZPWjqHTLVWbYb-124" parent="1">
          <mxGeometry relative="1" as="geometry">
            <mxPoint x="340" y="345.31" as="sourcePoint" />
            <mxPoint x="400" y="345.31" as="targetPoint" />
          </mxGeometry>
        </mxCell>
        <mxCell id="Mo_r6kZZPWjqHTLVWbYb-124" value="Teléfono" style="ellipse;whiteSpace=wrap;html=1;align=center;" vertex="1" parent="1">
          <mxGeometry x="375" y="330.31" width="50" height="30" as="geometry" />
        </mxCell>
        <mxCell id="Mo_r6kZZPWjqHTLVWbYb-126" value="Teléfono" style="ellipse;whiteSpace=wrap;html=1;align=center;" vertex="1" parent="1">
          <mxGeometry x="639" y="245.55" width="50" height="30" as="geometry" />
        </mxCell>
        <mxCell id="Mo_r6kZZPWjqHTLVWbYb-127" value="" style="endArrow=none;html=1;rounded=0;exitX=1;exitY=0;exitDx=0;exitDy=0;entryX=0.5;entryY=1;entryDx=0;entryDy=0;" edge="1" parent="1" source="Mo_r6kZZPWjqHTLVWbYb-93" target="Mo_r6kZZPWjqHTLVWbYb-126">
          <mxGeometry relative="1" as="geometry">
            <mxPoint x="615" y="355.54999999999995" as="sourcePoint" />
            <mxPoint x="628" y="315.54999999999995" as="targetPoint" />
          </mxGeometry>
        </mxCell>
        <mxCell id="Mo_r6kZZPWjqHTLVWbYb-129" value="" style="endArrow=none;html=1;rounded=0;" edge="1" target="Mo_r6kZZPWjqHTLVWbYb-130" parent="1">
          <mxGeometry relative="1" as="geometry">
            <mxPoint x="639" y="345.54999999999995" as="sourcePoint" />
            <mxPoint x="699" y="345.54999999999995" as="targetPoint" />
          </mxGeometry>
        </mxCell>
        <mxCell id="Mo_r6kZZPWjqHTLVWbYb-130" value="Especialidad" style="ellipse;whiteSpace=wrap;html=1;align=center;" vertex="1" parent="1">
          <mxGeometry x="674" y="330.54999999999995" width="91" height="30" as="geometry" />
        </mxCell>
      </root>
    </mxGraphModel>
  </diagram>
</mxfile>
